<?xml version="1.0" standalone="no"?><!DOCTYPE svg PUBLIC "-//W3C//DTD SVG 1.1//EN" "http://www.w3.org/Graphics/SVG/1.1/DTD/svg11.dtd"><svg t="1607578097819" class="icon" viewBox="0 0 1024 1024" version="1.1" xmlns="http://www.w3.org/2000/svg" p-id="1149" xmlns:xlink="http://www.w3.org/1999/xlink" width="200" height="200"><defs><style type="text/css"></style></defs><path d="M560 720l-64 0-32 0 0-16 32 0L496 464l-32 0 0-16 32 0 64 0 0 16 0 240 32 0 0 16L560 720zM528 402.992c-24.304 0-44-19.696-44-44 0-24.304 19.696-44 44-44 24.32 0 44 19.696 44 44C572 383.296 552.32 402.992 528 402.992z" p-id="1150"></path><path d="M528 896c-202.912 0-368-165.088-368-368s165.088-368 368-368c202.928 0 368 165.088 368 368S730.928 896 528 896zM528 192c-185.28 0-336 150.72-336 336s150.72 336 336 336c185.264 0 336-150.736 336-336S713.264 192 528 192z" p-id="1151"></path></svg>